<?xml version="1.0" standalone="no"?>
<!DOCTYPE svg PUBLIC "-//W3C//DTD SVG 20010904//EN"
 "http://www.w3.org/TR/2001/REC-SVG-20010904/DTD/svg10.dtd">
<svg version="1.0" xmlns="http://www.w3.org/2000/svg"
 width="500.000000pt" height="500.000000pt" viewBox="0 0 500.000000 500.000000"
 preserveAspectRatio="xMidYMid meet">
<metadata>
Created by potrace 1.16, written by Peter Selinger 2001-2019
</metadata>
<g transform="translate(0.000000,500.000000) scale(0.100000,-0.100000)"
fill="#000000" stroke="none">
<path d="M2163 4984 c-364 -49 -723 -186 -1034 -392 -293 -195 -530 -433 -730
-732 -59 -88 -190 -335 -233 -440 -40 -96 -107 -317 -132 -433 -29 -137 -43
-329 -26 -350 7 -8 13 -81 16 -178 3 -90 10 -187 16 -215 11 -51 12 -52 63
-68 227 -70 797 -145 1378 -182 l96 -6 18 -56 c99 -318 384 -576 710 -643 373
-77 762 85 970 405 53 81 109 204 121 266 4 19 13 30 24 30 36 0 464 31 630
46 412 36 704 88 835 148 51 23 54 26 64 78 6 29 12 119 13 200 1 130 4 150
20 164 24 23 24 103 -2 259 -60 368 -207 728 -421 1035 -412 588 -1040 971
-1744 1065 -141 19 -512 18 -652 -1z m1212 -430 c293 -76 413 -414 208 -588
-98 -84 -300 -107 -420 -48 -68 33 -87 46 -134 96 -92 97 -127 208 -103 323
20 98 88 169 203 214 58 23 167 24 246 3z m-727 -1849 c181 -43 330 -182 383
-358 28 -91 24 -238 -9 -311 -17 -38 -25 -46 -35 -37 -11 8 -23 -2 -56 -48
-35 -48 -119 -129 -97 -92 4 7 0 11 -12 11 -31 0 -33 23 -11 106 11 42 18 78
16 81 -3 2 -28 -16 -57 -41 -50 -43 -90 -66 -135 -80 -27 -8 -126 57 -203 134
-65 64 -101 122 -137 215 -17 44 -28 61 -44 63 -33 5 -26 46 17 94 20 23 31
38 24 34 -7 -4 -19 -2 -27 4 -18 15 -20 91 -2 109 20 22 -44 -14 -87 -48 -43
-34 -61 -40 -52 -15 6 15 4 15 -11 3 -11 -9 -9 -3 5 16 31 40 117 103 172 127
113 49 240 61 358 33z"/>
<path d="M5 2200 c-12 -20 37 -265 86 -422 56 -184 166 -431 250 -564 138
-216 212 -309 388 -485 400 -398 877 -637 1429 -713 132 -19 517 -22 639 -6
207 28 421 84 613 160 95 38 240 106 240 113 0 6 -201 -2 -211 -8 -5 -4 -26
-3 -47 0 -20 4 -81 8 -134 10 -53 2 -101 6 -105 8 -5 3 -53 9 -108 12 -54 4
-116 13 -138 21 -22 8 -49 14 -60 14 -36 0 -111 27 -199 71 -31 16 -64 29 -73
29 -8 0 -18 6 -21 14 -3 8 -13 12 -25 9 -11 -3 -19 0 -19 6 0 7 -13 17 -30 22
-16 6 -30 15 -30 19 0 4 -9 6 -20 3 -14 -4 -20 0 -20 10 0 9 -10 19 -22 23
-32 10 -67 37 -68 52 0 6 -9 12 -20 12 -11 0 -20 5 -20 10 0 6 -5 10 -10 10
-6 0 -20 9 -32 20 -12 11 -28 20 -35 20 -8 0 -11 5 -8 10 3 6 -1 10 -9 10 -9
0 -16 4 -16 9 0 4 -16 25 -36 46 -20 21 -40 49 -45 63 -6 15 -15 22 -24 18 -9
-3 -15 0 -15 8 0 8 -4 16 -9 18 -15 5 -128 229 -147 291 -10 31 -22 57 -28 57
-6 0 -4 5 4 11 11 8 12 12 3 16 -19 7 -16 23 5 24 12 0 10 3 -8 11 -21 9 -22
12 -7 15 22 6 23 23 1 23 -12 0 -15 6 -11 21 3 12 1 33 -5 48 -13 30 -18 53
-21 96 -1 20 -22 54 -64 105 -77 93 -137 196 -179 309 l-32 86 -64 2 c-135 6
-454 35 -677 64 -451 56 -736 113 -778 155 -12 12 -25 19 -28 14z"/>
</g>
</svg>
